<?xml version="1.0" encoding="UTF-8" standalone="no"?>
<svg
   xmlns:dc="http://purl.org/dc/elements/1.1/"
   xmlns:cc="http://creativecommons.org/ns#"
   xmlns:rdf="http://www.w3.org/1999/02/22-rdf-syntax-ns#"
   xmlns:svg="http://www.w3.org/2000/svg"
   xmlns="http://www.w3.org/2000/svg"
   xmlns:sodipodi="http://sodipodi.sourceforge.net/DTD/sodipodi-0.dtd"
   xmlns:inkscape="http://www.inkscape.org/namespaces/inkscape"
   width="32"
   height="32"
   viewBox="0 0 8.4666667 8.4666667"
   version="1.1"
   id="svg8"
   inkscape:version="1.0.1 (3bc2e813f5, 2020-09-07)"
   sodipodi:docname="payment.svg">
  <defs
     id="defs2" />
  <sodipodi:namedview
     id="base"
     pagecolor="#000000"
     bordercolor="#666666"
     borderopacity="1.0"
     inkscape:pageopacity="0"
     inkscape:pageshadow="2"
     inkscape:zoom="15.839192"
     inkscape:cx="19.494439"
     inkscape:cy="9.4626283"
     inkscape:document-units="mm"
     inkscape:current-layer="layer1"
     inkscape:document-rotation="0"
     showgrid="false"
     inkscape:window-width="1874"
     inkscape:window-height="1016"
     inkscape:window-x="46"
     inkscape:window-y="27"
     inkscape:window-maximized="1"
     units="px" />
  <metadata
     id="metadata5">
    <rdf:RDF>
      <cc:Work
         rdf:about="">
        <dc:format>image/svg+xml</dc:format>
        <dc:type
           rdf:resource="http://purl.org/dc/dcmitype/StillImage" />
        <dc:title></dc:title>
      </cc:Work>
    </rdf:RDF>
  </metadata>
  <g
     inkscape:label="Layer 1"
     inkscape:groupmode="layer"
     id="layer1">
    <path
       id="rect861"
       style="fill:#ffffff;fill-opacity:1;stroke-width:0.530083;stroke-dasharray:2.12033, 0.530083"
       d="M 3.65625 7.0253906 C 2.3207009 7.0253906 1.2441406 8.0999979 1.2441406 9.4355469 L 1.2441406 10.541016 L 1.2441406 12.208984 L 1.2441406 22.396484 C 1.2441406 23.732033 2.3207009 24.806641 3.65625 24.806641 L 28.597656 24.806641 C 29.933206 24.806641 31.007813 23.732033 31.007812 22.396484 L 31.007812 12.208984 L 31.007812 10.541016 L 31.007812 9.4355469 C 31.007812 8.0999979 29.933206 7.0253906 28.597656 7.0253906 L 3.65625 7.0253906 z M 5.3300781 10.164062 L 8.8027344 10.164062 C 9.211211 10.164062 9.5390625 10.493867 9.5390625 10.902344 L 9.5390625 14.550781 C 9.5390625 14.959258 9.2112114 15.287109 8.8027344 15.287109 L 7.6308594 15.287109 L 7.6308594 11.333984 L 6.4824219 11.333984 L 6.4824219 13.378906 L 4.5917969 13.378906 L 4.5917969 12.330078 L 6.4589844 12.330078 L 6.4589844 11.3125 L 4.5917969 11.3125 L 4.5917969 10.902344 C 4.5917969 10.493867 4.9216011 10.164062 5.3300781 10.164062 z M 4.5917969 14.355469 L 6.4824219 14.355469 L 6.4824219 15.287109 L 5.3300781 15.287109 C 4.9216015 15.287109 4.5917969 14.959258 4.5917969 14.550781 L 4.5917969 14.355469 z M 25.248047 16.308594 A 3.0249626 2.8815557 0 0 1 25.255859 16.308594 A 3.0249626 2.8815557 0 0 1 28.28125 19.191406 A 3.0249626 2.8815557 0 0 1 25.255859 22.070312 A 3.0249626 2.8815557 0 0 1 23.027344 21.136719 A 3.0249626 2.8815557 0 0 1 20.785156 22.083984 A 3.0249626 2.8815557 0 0 1 17.761719 19.205078 A 3.0249626 2.8815557 0 0 1 20.785156 16.322266 A 3.0249626 2.8815557 0 0 1 23.015625 17.255859 A 3.0249626 2.8815557 0 0 1 25.248047 16.308594 z M 3.234375 18.402344 L 9.7695312 18.402344 L 9.7695312 20.712891 L 3.234375 20.712891 L 3.234375 18.402344 z M 11.119141 18.402344 L 15.929688 18.402344 L 15.929688 20.712891 L 11.119141 20.712891 L 11.119141 18.402344 z "
       transform="scale(0.26458333)" />
    <path
       id="path874"
       style="fill:#ffffff;fill-opacity:1;stroke-width:0.140251;stroke-dasharray:0.561004, 0.140251"
       d="M 0.23112163,3.3049201 V 2.8636578" />
    <path
       id="path870"
       style="fill:#ffffff;fill-opacity:1;stroke-width:0.530083;stroke-dasharray:2.12033, 0.53008299999999997"
       d="M 31.017909 11.172534 L 31.017909 12.840296 "
       transform="scale(0.26458333)" />
    <text
       xml:space="preserve"
       style="font-style:normal;font-weight:normal;font-size:10.5833px;line-height:1.25;font-family:sans-serif;fill:#000000;fill-opacity:1;stroke:none;stroke-width:0.264583"
       x="3.7027297"
       y="2.9724722"
       id="text939"><tspan
         sodipodi:role="line"
         id="tspan937"
         x="3.7027297"
         y="2.9724722"
         style="stroke-width:0.264583" /></text>
  </g>
</svg>
