<?xml version="1.0" encoding="UTF-8" standalone="no"?>
<svg
   xmlns:dc="http://purl.org/dc/elements/1.1/"
   xmlns:cc="http://creativecommons.org/ns#"
   xmlns:rdf="http://www.w3.org/1999/02/22-rdf-syntax-ns#"
   xmlns:svg="http://www.w3.org/2000/svg"
   xmlns="http://www.w3.org/2000/svg"
   xmlns:sodipodi="http://sodipodi.sourceforge.net/DTD/sodipodi-0.dtd"
   xmlns:inkscape="http://www.inkscape.org/namespaces/inkscape"
   width="50"
   height="28"
   viewBox="0 0 13.229167 7.4083334"
   version="1.1"
   id="svg8"
   inkscape:version="1.0.1 (3bc2e813f5, 2020-09-07)"
   sodipodi:docname="searchmode-article.svg">
  <defs
     id="defs2" />
  <sodipodi:namedview
     id="base"
     pagecolor="#006500"
     bordercolor="#666666"
     borderopacity="1.0"
     inkscape:pageopacity="0"
     inkscape:pageshadow="2"
     inkscape:zoom="22.4"
     inkscape:cx="1.3871545"
     inkscape:cy="17.609342"
     inkscape:document-units="mm"
     inkscape:current-layer="layer1"
     inkscape:document-rotation="0"
     showgrid="false"
     inkscape:window-width="1874"
     inkscape:window-height="1016"
     inkscape:window-x="46"
     inkscape:window-y="27"
     inkscape:window-maximized="1"
     units="px" />
  <metadata
     id="metadata5">
    <rdf:RDF>
      <cc:Work
         rdf:about="">
        <dc:format>image/svg+xml</dc:format>
        <dc:type
           rdf:resource="http://purl.org/dc/dcmitype/StillImage" />
        <dc:title></dc:title>
      </cc:Work>
    </rdf:RDF>
  </metadata>
  <g
     inkscape:label="Layer 1"
     inkscape:groupmode="layer"
     id="layer1">
    <path
       id="path1519"
       style="font-style:normal;font-weight:normal;font-size:4.12146px;line-height:1.25;font-family:sans-serif;fill:#000000;fill-opacity:1;stroke:none;stroke-width:0.103037"
       d="M 12.042959,3.9245974 11.320496,4.3150092 12.042959,4.7074333 11.926238,4.9046516 11.250061,4.496128 V 5.2548147 H 11.020644 V 4.496128 L 10.344467,4.9046516 10.227745,4.7074333 10.950208,4.3150092 10.227745,3.9245974 10.344467,3.7253667 11.020644,4.1338903 V 3.3752036 h 0.229417 v 0.7586867 l 0.676177,-0.4085236 z m -2.0607302,0 L 9.2597659,4.3150092 9.9822288,4.7074333 9.8655078,4.9046516 9.1893308,4.496128 V 5.2548147 H 8.9599136 V 4.496128 L 8.2837365,4.9046516 8.1670155,4.7074333 8.8894784,4.3150092 8.1670155,3.9245974 8.2837365,3.7253667 8.9599136,4.1338903 V 3.3752036 h 0.2294172 v 0.7586867 l 0.676177,-0.4085236 z m -2.947899,0.2588311 c -0.2868003,0 -0.4855028,0.032795 -0.5961074,0.098386 -0.1106045,0.065591 -0.1659068,0.1774821 -0.1659068,0.3356722 0,0.1260378 0.041155,0.2263536 0.1234658,0.3009474 0.083596,0.073308 0.1967731,0.1099619 0.3395304,0.1099619 0.1967733,0 0.3543206,-0.069449 0.4726418,-0.2083483 C 7.3275607,4.6798631 7.3873643,4.4940218 7.3873643,4.2625238 V 4.1834284 Z M 7.742328,4.0368131 V 5.2695402 H 7.3873643 V 4.9415846 C 7.3063404,5.0727669 7.2053815,5.1698674 7.0844878,5.2328862 6.9635944,5.2946189 6.8156929,5.3254852 6.6407833,5.3254852 6.419574,5.3254852 6.2433782,5.2637524 6.112196,5.1402868 5.9822999,5.015535 5.9173519,4.848985 5.9173519,4.6406368 c 0,-0.2430729 0.081024,-0.4263422 0.2430728,-0.5498078 C 6.3237594,3.9673634 6.5668324,3.9056306 6.8896436,3.9056306 h 0.4977207 v -0.034725 c 0,-0.1633347 -0.054016,-0.2893725 -0.1620486,-0.3781134 -0.1067463,-0.090027 -0.25722,-0.1350413 -0.4514212,-0.1350413 -0.1234656,0 -0.2437159,0.01479 -0.360751,0.04437 -0.1170352,0.02958 -0.229569,0.073951 -0.3376014,0.1331114 V 3.2072785 C 6.2054382,3.1571205 6.3314761,3.1198237 6.4536556,3.095388 6.5758351,3.069666 6.6947994,3.056805 6.8105484,3.056805 c 0.3125223,0 0.5459495,0.081024 0.7002815,0.243073 C 7.665162,3.4619267 7.742328,3.7075717 7.742328,4.0368131 Z M 12.528142,2.2166114 V 5.6660567 H 12.293067 V 2.2166114 Z M 2.9404826,5.6660567 H 12.528142 V 5.9011318 H 2.9404826 Z M 5.4701862,1.9815362 H 12.528142 V 2.2166113 H 5.4701862 Z"
       sodipodi:nodetypes="ccccccccccccccccccccccccccccccccccccccssscscscssccccscscscscsscccsssccccccccccccccc" />
    <g
       aria-label="a"
       id="text901"
       style="font-style:normal;font-weight:normal;font-size:2.81689px;line-height:1.25;font-family:sans-serif;fill:#ffffff;fill-opacity:1;stroke:none;stroke-width:0.0704223"
       transform="matrix(1.4025751,0,0,1.4025751,-2.3821783,-2.1439077)" />
    <path
       id="rect853"
       style="fill:#000000;fill-opacity:1;stroke-width:0.124438;stroke-dasharray:0.497753, 0.124438"
       d="M 1.399505,4.2842029 0.29120819,5.7499801 c -0.085638,0.406155 0.4430653,0.851386 0.87963121,0.6651027 L 2.2791361,4.9493059 C 1.8798248,4.806501 1.6069699,4.5696656 1.399505,4.2842029 Z M 1.9887443,5.0206236 1.0711891,6.2341355 C 0.90278789,6.2462165 0.81587759,6.1948585 0.70948809,6.1187248 L 1.6835175,4.8416655 c 0.1162901,0.077548 0.1265584,0.092559 0.3052283,0.1789594 z M 3.2199304,0.45700001 A 2.1345773,2.2089479 0 0 0 1.0856939,2.6661676 2.1345773,2.2089479 0 0 0 3.2199304,4.875335 2.1345773,2.2089479 0 0 0 5.354684,2.6661676 2.1345773,2.2089479 0 0 0 3.2199304,0.45700001 Z m -0.034623,0.5193481 a 1.6022425,1.6736977 0 0 1 0.025836,0 A 1.6022425,1.6736977 0 0 1 4.8136304,2.6501478 1.6022425,1.6736977 0 0 1 3.2111441,4.3234306 1.6022425,1.6736977 0 0 1 1.6091749,2.6501478 1.6022425,1.6736977 0 0 1 3.1853063,0.97634811 Z M 3.8021294,1.3467665 C 4.2910389,1.6829587 4.4890922,2.2373161 4.5015261,2.9310982 4.4601121,3.1685646 4.282436,3.3034581 4.141825,3.4661391 4.2321635,2.6885119 4.2770649,1.9267519 3.8021294,1.3467665 Z" />
  </g>
</svg>
