<?xml version="1.0" encoding="UTF-8" standalone="no"?>
<svg
   xmlns:dc="http://purl.org/dc/elements/1.1/"
   xmlns:cc="http://creativecommons.org/ns#"
   xmlns:rdf="http://www.w3.org/1999/02/22-rdf-syntax-ns#"
   xmlns:svg="http://www.w3.org/2000/svg"
   xmlns="http://www.w3.org/2000/svg"
   xmlns:sodipodi="http://sodipodi.sourceforge.net/DTD/sodipodi-0.dtd"
   xmlns:inkscape="http://www.inkscape.org/namespaces/inkscape"
   width="50"
   height="28"
   viewBox="0 0 13.229167 7.4083334"
   version="1.1"
   id="svg8"
   inkscape:version="1.0.1 (3bc2e813f5, 2020-09-07)"
   sodipodi:docname="searchmode-barcode.svg">
  <defs
     id="defs2" />
  <sodipodi:namedview
     id="base"
     pagecolor="#006500"
     bordercolor="#666666"
     borderopacity="1.0"
     inkscape:pageopacity="0"
     inkscape:pageshadow="2"
     inkscape:zoom="15.839192"
     inkscape:cx="13.998133"
     inkscape:cy="24.288779"
     inkscape:document-units="mm"
     inkscape:current-layer="layer1"
     inkscape:document-rotation="0"
     showgrid="false"
     inkscape:window-width="1874"
     inkscape:window-height="1016"
     inkscape:window-x="46"
     inkscape:window-y="27"
     inkscape:window-maximized="1"
     units="px"
     inkscape:snap-global="false" />
  <metadata
     id="metadata5">
    <rdf:RDF>
      <cc:Work
         rdf:about="">
        <dc:format>image/svg+xml</dc:format>
        <dc:type
           rdf:resource="http://purl.org/dc/dcmitype/StillImage" />
        <dc:title />
      </cc:Work>
    </rdf:RDF>
  </metadata>
  <g
     inkscape:label="Layer 1"
     inkscape:groupmode="layer"
     id="layer1">
    <path
       id="rect853"
       style="fill:#000000;fill-opacity:1;stroke-width:0.124438;stroke-dasharray:0.497753, 0.12443799999999999"
       d="M 1.3990438,4.2845096 0.29074708,5.7502867 C 0.20510878,6.1564415 0.73381238,6.6016726 1.1703782,6.4153894 L 2.2786749,4.9496124 C 1.8793636,4.8068076 1.6065087,4.5699722 1.3990438,4.2845096 Z M 1.9882831,5.0209301 1.0707279,6.234442 C 0.90232678,6.2465228 0.81541648,6.1951654 0.70902698,6.1190314 L 1.6830563,4.8419719 c 0.1162901,0.077548 0.1265584,0.092559 0.3052283,0.1789595 z M 3.2194693,0.45730658 A 2.1345773,2.2089479 0 0 0 1.0852327,2.6664742 2.1345773,2.2089479 0 0 0 3.2194693,4.8756415 2.1345773,2.2089479 0 0 0 5.3542227,2.6664742 2.1345773,2.2089479 0 0 0 3.2194693,0.45730658 Z m -0.034623,0.51934816 a 1.6022425,1.6736977 0 0 1 0.025838,0 A 1.6022425,1.6736977 0 0 1 4.8131705,2.6504544 1.6022425,1.6736977 0 0 1 3.2106843,4.3237371 1.6022425,1.6736977 0 0 1 1.608715,2.6504544 1.6022425,1.6736977 0 0 1 3.1848463,0.97665474 Z M 3.8016681,1.3470731 C 4.2905778,1.6832653 4.4886311,2.2376227 4.5010649,2.9314048 4.459651,3.1688711 4.2819748,3.3037648 4.1413639,3.4664456 4.2317024,2.6888185 4.2766036,1.9270585 3.8016681,1.3470731 Z" />
    <rect
       style="fill:#000000;stroke-width:0.1309;stroke-dasharray:0.523601, 0.1309"
       id="rect2190"
       width="0.81522185"
       height="3.9471557"
       x="5.7390532"
       y="1.9982405" />
    <rect
       style="fill:#000000;stroke-width:0.0691641;stroke-dasharray:0.276656, 0.0691641"
       id="rect2190-5"
       width="0.22759266"
       height="3.9471557"
       x="6.8745432"
       y="1.9843391" />
    <rect
       style="fill:#000000;stroke-width:0.0691642;stroke-dasharray:0.276656, 0.0691642"
       id="rect2190-5-3"
       width="0.22759268"
       height="3.9471557"
       x="7.3208985"
       y="1.9813844" />
    <rect
       style="fill:#000000;stroke-width:0.0691642;stroke-dasharray:0.276656, 0.0691642"
       id="rect2190-5-5"
       width="0.22759268"
       height="3.9471557"
       x="8.0652914"
       y="1.9951854" />
    <rect
       style="fill:#000000;stroke-width:0.1309;stroke-dasharray:0.5236, 0.1309"
       id="rect2190-6"
       width="0.81522185"
       height="3.9471557"
       x="8.5608311"
       y="1.9939162" />
    <rect
       style="fill:#000000;stroke-width:0.1309;stroke-dasharray:0.5236, 0.1309"
       id="rect2190-2"
       width="0.81522185"
       height="3.9471557"
       x="9.7018881"
       y="1.9757636" />
    <rect
       style="fill:#000000;stroke-width:0.0691642;stroke-dasharray:0.276656, 0.0691642"
       id="rect2190-5-5-9"
       width="0.22759268"
       height="3.9471557"
       x="10.766818"
       y="1.9893681" />
    <rect
       style="fill:#000000;stroke-width:0.0691642;stroke-dasharray:0.276656, 0.0691642"
       id="rect2190-5-5-1"
       width="0.22759268"
       height="3.9471557"
       x="11.512188"
       y="1.999947" />
    <rect
       style="fill:#000000;stroke-width:0.0691642;stroke-dasharray:0.276656, 0.0691642"
       id="rect2190-5-5-2"
       width="0.22759268"
       height="3.9471557"
       x="11.952971"
       y="2.0088966" />
    <rect
       style="fill:#000000;stroke-width:0.0691642;stroke-dasharray:0.276656, 0.0691642"
       id="rect2190-5-5-7"
       width="0.22759268"
       height="3.9471557"
       x="12.573136"
       y="1.9998984" />
  </g>
</svg>
